<svg xmlns="http://www.w3.org/2000/svg" xmlns:xlink="http://www.w3.org/1999/xlink" viewBox="0 0 450.6 218.7"><defs><style>.cls-1{fill:url(#linear-gradient);}.cls-2{fill:url(#linear-gradient-2);}</style><linearGradient id="linear-gradient" x1="152.72" y1="21" x2="194.72" y2="21" gradientUnits="userSpaceOnUse"><stop offset="0" stop-color="#af1339"/><stop offset="1" stop-color="#d62d2d"/></linearGradient><linearGradient id="linear-gradient-2" x1="393.48" y1="180.12" x2="450.6" y2="180.12" xlink:href="#linear-gradient"/></defs><g id="圖層_2" data-name="圖層 2"><g id="Layer_1" data-name="Layer 1"><path d="M124.17,141.18l-83-2,6.56-21.25H9L1.8,141.18a35,35,0,0,0-1.6,14.5,25.48,25.48,0,0,0,4.24,11.75,23.69,23.69,0,0,0,9.32,7.88,30.53,30.53,0,0,0,13.61,2.87l87,2a42.67,42.67,0,0,0,15.14-2.87,57.27,57.27,0,0,0,14.31-7.88,56.33,56.33,0,0,0,11.63-11.75,48.76,48.76,0,0,0,7.35-14.5L189.72,56H150.47Z"/><path d="M414.46.18H272a43.58,43.58,0,0,0-15.39,2.88,55.54,55.54,0,0,0-14.18,7.87,57.72,57.72,0,0,0-11.5,11.75A48.48,48.48,0,0,0,223.6,37H403.09Z"/><path d="M256.47,56H217.72L190.8,143.18a35,35,0,0,0-1.6,14.5,25.48,25.48,0,0,0,4.24,11.75,23.69,23.69,0,0,0,9.32,7.88,30.53,30.53,0,0,0,13.61,2.87h142.5l12.05-39H230.17Z"/><circle class="cls-1" cx="173.72" cy="21" r="21"/><polygon class="cls-2" points="393.48 141.54 397.89 218.7 419.44 194.31 450.6 191.64 393.48 141.54"/></g></g></svg>